<?xml version="1.0" encoding="UTF-8" standalone="no"?>
<svg width="1744px" height="303px" viewBox="0 0 1744 303" version="1.1" xmlns="http://www.w3.org/2000/svg" xmlns:xlink="http://www.w3.org/1999/xlink" xmlns:sketch="http://www.bohemiancoding.com/sketch/ns">
    <!-- Generator: Sketch 3.3.2 (12043) - http://www.bohemiancoding.com/sketch -->
    <title>Group Copy 30 + Group Copy 31 + Oval 173 + Oval 174 + Line + Rectangle 694 + Oval 173 + Oval 173 Copy + Path 472 + Group + Shape Copy 23 Copy</title>
    <desc>Created with Sketch.</desc>
    <defs></defs>
    <g id="Logos" stroke="none" stroke-width="1" fill="none" fill-rule="evenodd" sketch:type="MSPage">
        <g id="Artboard-27-Copy-2" sketch:type="MSArtboardGroup" transform="translate(-1580.000000, -1296.000000)">
            <g id="Group-Copy-30-+-Group-Copy-31-+-Oval-173-+-Oval-174-+-Line-+-Rectangle-694-+-Oval-173-+-Oval-173-Copy-+-Path-472-+-Group-+-Shape-Copy-23-Copy" sketch:type="MSLayerGroup" transform="translate(1580.000000, 1296.000000)">
                <g id="Group-Copy-30-+-Group-Copy-31-+-Oval-173-+-Oval-174-+-Line-+-Rectangle-694-+-Oval-173-+-Oval-173-Copy-+-Path-472" transform="translate(837.000000, 0.000000)" fill="#373C83" sketch:type="MSShapeGroup">
                    <g id="Group-Copy-7-+-welby-copy-2-+-Path-3102-Copy-2-+-Path-3102-Copy-3-Copy-Copy-Copy-Copy-Copy" transform="translate(0.500000, 65.500000)">
                        <path d="M47.4614841,163.012204 C48.0934454,165.130916 50.3977034,166.848471 52.6007517,166.848471 L80.4983893,166.848471 C82.7047671,166.848471 84.944053,165.120441 85.5032186,162.976368 L111.939068,61.6103794 C113.471929,55.7327556 115.981461,55.72669 117.544437,61.5974787 L144.534468,162.976368 C145.103801,165.114871 147.36062,166.848471 149.560555,166.848471 L177.772558,166.848471 C179.979057,166.848471 182.280353,165.130012 182.912045,163.012204 L229.50697,6.79822064 C230.611437,3.0953869 228.37787,0.0936470588 224.498778,0.0936470588 L203.256762,0.0936470588 C199.386346,0.0936470588 195.437151,3.11627451 194.433387,6.85455659 L177.360524,70.4384314 C172.008858,88.6527059 166.036766,114.282286 166.036766,114.282286 C164.988528,118.68544 163.284166,118.740841 162.194069,114.297772 C162.194069,114.297772 155.953862,88.3386667 150.602197,69.8103529 L135.698282,13.8674247 C133.671666,6.26037736 125.658245,0.0936470588 117.7623,0.0936470588 L114.814856,0.0936470588 C106.935702,0.0936470588 98.9528356,6.28980908 96.9808914,13.9476607 L82.9193704,68.5541961 C77.5677051,87.7105882 71.5287503,114.333095 71.5287503,114.333095 C70.5174389,118.708188 68.8453585,118.707242 67.7845471,114.314714 C67.7845471,114.314714 61.512709,88.0246275 56.4758475,69.1822745 L40.0053562,6.8597413 C39.0177983,3.12293063 35.0800656,0.0936470588 31.2161645,0.0936470588 L5.86780392,0.0936470588 C2.00122526,0.0936470588 -0.238187745,3.09444998 0.866559168,6.79822064 L47.4614841,163.012204 Z" id="welby-copy-2"></path>
                    </g>
                    <g id="Group-Copy-7-+-welby-copy-2-+-Path-3102-Copy-2-+-Path-3102-Copy-3-Copy-Copy-Copy-Copy-Copy-Copy" transform="translate(252.500000, 61.500000)">
                        <path d="M135.367547,128.257695 C133.00537,125.93751 128.92319,125.641719 126.196304,127.515115 C126.196304,127.515115 105.906141,143.527059 84.1846754,143.527059 C59.6299755,143.527059 41.0565487,130.337412 39.4825295,100.189647 L146.607987,100.189647 C150.555905,100.189647 153.756325,97.0044124 153.756325,93.0138994 L153.756325,91.0825098 C153.756325,23.2500392 117.868687,0.953254902 80.4070292,0.953254902 C45.7786063,0.953254902 0.761656574,24.1921569 0.761656574,87.6280784 C0.761656574,148.865725 39.4825295,174.302902 81.3514408,174.302902 C111.257806,174.302902 134.238487,163.311529 151.552698,144.155137 L135.367547,128.257695 Z M68.1323223,71.2980392 L118.183491,71.2980392 C115.979864,45.8608627 103.38771,32.3571765 80.0922254,32.3571765 C61.2039947,32.3571765 43.8897833,43.0345098 40.1121371,71.2980392 L40.1296116,71.2980392 C39.837806,73.4545441 38.7907553,82.815169 39.6444666,101.051588 C39.6444666,101.051588 39.6710627,89.3715671 48.3664115,80.0898493 C55.3568368,72.6280261 64.7267084,71.466615 68.1323223,71.2980392 L68.1323223,71.2980392 Z" id="welby-copy-2"></path>
                    </g>
                    <g id="Group-Copy-7-+-welby-copy-2-+-Path-3102-Copy-2-+-Path-3102-Copy-3-Copy-Copy-Copy-Copy-Copy" transform="translate(453.500000, 0.500000)">
                        <path d="M32.5633859,232.848471 C36.4301113,232.848471 39.5647116,229.717361 39.5647116,225.846069 L39.5647116,7.4618525 C39.5647116,3.59453293 36.4362444,0.45945098 32.5633859,0.45945098 L7.5303606,0.45945098 C3.66363519,0.45945098 0.529034902,3.59056072 0.529034902,7.4618525 L0.529034902,225.846069 C0.529034902,229.713389 3.65750215,232.848471 7.5303606,232.848471 L32.5633859,232.848471 Z" id="welby-copy-2"></path>
                    </g>
                    <g id="Group-Copy-7-+-welby-copy-2-+-Path-3102-Copy-2-+-Path-3102-Copy-3-Copy-Copy-Copy-Copy-Copy-Copy-Copy" transform="translate(547.500000, 0.500000)">
                        <path d="M158.813067,149.314039 C158.813067,91.5308235 130.795525,62.9532549 92.7042594,62.9532549 C67.8347557,62.9532549 50.5205443,74.8867451 39.5024097,88.0763922 L39.5024097,7.46298344 C39.5024097,3.59503927 36.3665172,0.45945098 32.5015667,0.45945098 L7.78237985,0.45945098 C3.91592102,0.45945098 0.781536843,3.59056072 0.781536843,7.4618525 L0.781536843,225.846069 C0.781536843,229.713389 3.9174294,232.848471 7.78237985,232.848471 L32.5015667,232.848471 C36.3680255,232.848471 39.5024097,229.705395 39.5024097,225.84371 L39.5024097,214.320157 C39.5024097,214.320157 69.408775,235.360784 87.3525941,235.360784 C130.165917,235.360784 158.813067,207.097255 158.813067,149.314039 Z M78.8528903,204.584941 C108.129648,204.584941 120.092194,186.684706 120.092194,149.628078 C120.092194,114.455686 104.981609,95.9273725 80.1121057,95.9273725 C64.0571096,95.9273725 48.6317212,105.976627 39.5024097,116.968 C39.5024097,116.968 39.5600586,234.825055 39.5600586,214.574903 C39.5600586,194.32475 68.4248428,203.325768 68.4248428,203.325768 C71.8406293,204.132505 75.3861978,204.584941 78.8528903,204.584941 Z" id="welby-copy-2"></path>
                    </g>
                    <g id="Group-Copy-7-+-welby-copy-2-+-Path-3102-Copy-2-+-Path-3102-Copy-3-Copy-Copy-Copy-Copy-Copy-Copy-Copy-Copy" transform="translate(738.500000, 70.500000)">
                        <path d="M167.143546,6.62246429 C168.530452,3.0166981 166.511831,0.0936470588 162.655153,0.0936470588 L138.248299,0.0936470588 C134.382522,0.0936470588 130.195458,3.04010587 128.890498,6.69077961 L92.6209013,108.156294 C89.9615727,115.595862 85.6670305,115.599974 83.025513,108.156294 L47.0187396,6.69077961 C45.7257828,3.04728391 41.5492914,0.0936470588 37.6818143,0.0936470588 L11.3785621,0.0936470588 C7.51487745,0.0936470588 5.50418516,3.02205886 6.88545257,6.6289473 L68.6027265,167.790588 L63.8806688,180.038118 C58.5290034,193.541804 51.288515,198.880471 37.4371458,198.880471 C23.9005805,198.880471 13.0172885,196.240317 13.0172885,196.240317 C10.8564807,195.790604 8.61833809,197.141851 8.01512753,199.269451 L1.37996449,222.67251 C0.778155096,224.795167 2.0396794,226.931383 4.19724856,227.408434 C4.19724856,227.408434 20.1229344,231.540549 39.9555766,231.540549 C73.0099803,231.540549 87.4909571,214.268392 98.5090917,185.062745 L167.143546,6.62246429 Z" id="welby-copy-2"></path>
                    </g>
                </g>
                <g id="Group" transform="translate(0.000000, 18.000000)" sketch:type="MSShapeGroup">
                    <path d="M119.075837,224.56356 C156.523577,272.363754 222.628171,269.714588 256.125261,219.064881 L332.615964,103.406127 C333.968847,101.360482 335.282689,99.7349155 336.501927,98.512159 C337.330306,97.6813888 337.996713,97.1499583 338.465728,96.8625417 C337.19389,97.2437866 336.33673,97.3539819 335.432251,97.3328838 C334.527759,97.3117853 333.676643,97.1617387 332.974115,96.9272039 C332.878384,97.0301874 333.519002,97.5918585 334.307428,98.4599969 C335.467919,99.7378167 336.704105,101.422288 337.959686,103.528057 L410.578486,225.319006 C442.391966,278.674253 509.372696,282.219458 546.638974,232.511313 L656.805547,85.5640878 C672.87294,64.1323704 668.524296,33.7333349 647.092579,17.6659416 C625.660862,1.59854827 595.261826,5.94719212 579.194433,27.3789095 L482.390741,156.463072 L421.273734,53.8514086 C379.71867,-15.8417119 296.470438,-17.7835826 251.709033,49.898478 L175.21833,165.557232 C175.725241,165.09189 176.304343,164.632905 177.051979,164.17178 C179.233283,162.826399 182.087961,161.935362 185.195054,161.810845 C188.301553,161.68635 191.217332,162.345809 193.498179,163.511598 C194.279619,163.911009 194.892945,164.321681 195.334561,164.694879 C195.55996,164.898366 87.1789109,26.5612869 87.1789109,26.5612869 C70.6599571,5.47565666 40.1754185,1.77363396 19.0897883,18.2925878 C-1.99584196,34.8115416 -5.69786466,65.2960801 10.8210891,86.3817103 L119.075837,224.56356 Z" id="Shape-Copy-5" fill="#48DD9C"></path>
                    <path d="M546.638974,232.511313 C509.372696,282.219458 442.391966,278.674253 410.578486,225.319006 L337.959686,103.528057 C336.704105,101.422288 335.467919,99.7378167 334.307428,98.4599969 C333.519002,97.5918585 332.878384,97.0301874 332.423531,96.7213869 C333.676643,97.1617387 334.527759,97.3117853 335.432251,97.3328838 C336.33673,97.3539819 337.19389,97.2437866 337.906542,97.0422759 C337.996713,97.1499583 337.330306,97.6813888 336.501927,98.512159 C335.282689,99.7349155 333.968847,101.360482 332.615964,103.406127 L256.125261,219.064881 C222.628171,269.714588 156.523577,272.363754 119.075837,224.56356 L10.8210891,86.3817103 C-5.69786466,65.2960801 -1.99584196,34.8115416 19.0897883,18.2925878 C40.1754185,1.77363396 70.6599571,5.47565666 87.1789109,26.5612869 L195.433659,164.743137 C194.892945,164.321681 194.279619,163.911009 193.498179,163.511598 C191.217332,162.345809 188.301553,161.68635 185.195054,161.810845 C182.087961,161.935362 179.233283,162.826399 177.051979,164.17178 C176.304343,164.632905 175.725241,165.09189 175.314384,165.499826 C175.105158,165.721683 251.709033,49.898478 251.709033,49.898478 C296.470438,-17.7835826 379.71867,-15.8417119 421.273734,53.8514086 L480.127429,152.556529 C480.650985,153.524352 481.198902,154.485001 481.771365,155.43774 C481.981232,155.787017 482.193587,156.133881 482.408393,156.478323 L483.269515,157.826205 C504.419515,190.148802 547.542792,200.213642 580.961446,180.133688 C584.966039,177.727487 588.653858,174.995026 592.011296,171.990806 L546.638974,232.511313 Z" id="Shape-Copy-7" fill="#3489CA"></path>
                    <path d="M332.615964,103.406127 L256.125261,219.064881 C222.628171,269.714588 156.523577,272.363754 119.075837,224.56356 L10.8210891,86.3817103 C-5.69786466,65.2960801 -1.99584196,34.8115416 19.0897883,18.2925878 C40.1754185,1.77363396 70.6599571,5.47565666 87.1789109,26.5612869 L184.813977,151.10187 L251.709033,49.898478 C296.470438,-17.7835826 379.71867,-15.8417119 421.273734,53.8514086 L444.193755,92.291195 C420.833321,64.57402 379.517732,60.1105071 350.69537,82.6290041 C345.223461,86.9041277 334.776401,100.349984 334.540308,100.737069 C333.912103,101.530297 333.268576,102.419337 332.615964,103.406127 Z" id="Shape-Copy-6" fill="#50C7CB"></path>
                    <path d="M256.125261,219.064881 C222.628171,269.714588 156.523577,272.363754 119.075837,224.56356 L10.8210891,86.3817103 C-5.69786466,65.2960801 -1.99584196,34.8115416 19.0897883,18.2925878 C40.1754185,1.77363396 70.6599571,5.47565666 87.1789109,26.5612869 C87.1789109,26.5612869 188.836531,156.174344 190.986506,158.926186 C214.016596,188.403357 256.597986,193.617369 286.094702,170.572008 C287.7981,169.241168 289.420612,167.845188 290.961463,166.390353 L256.125261,219.064881 Z" id="Shape" fill="#373C83"></path>
                </g>
            </g>
        </g>
    </g>
</svg>